<?xml version="1.0" encoding="UTF-8" standalone="no"?>
<!-- Created with Inkscape (http://www.inkscape.org/) -->

<svg
   width="354.85059mm"
   height="609.85388mm"
   viewBox="0 0 354.85059 609.85388"
   version="1.1"
   id="svg5"
   xml:space="preserve"
   xmlns:inkscape="http://www.inkscape.org/namespaces/inkscape"
   xmlns:sodipodi="http://sodipodi.sourceforge.net/DTD/sodipodi-0.dtd"
   xmlns="http://www.w3.org/2000/svg"
   xmlns:svg="http://www.w3.org/2000/svg"><sodipodi:namedview
     id="namedview7"
     pagecolor="#ffffff"
     bordercolor="#000000"
     borderopacity="0.25"
     inkscape:showpageshadow="2"
     inkscape:pageopacity="0.0"
     inkscape:pagecheckerboard="0"
     inkscape:deskcolor="#d1d1d1"
     inkscape:document-units="mm"
     showgrid="false" /><defs
     id="defs2" /><g
     inkscape:label="Capa 1"
     inkscape:groupmode="layer"
     id="layer1"
     transform="translate(-658.04994,358.03197)"><g
       id="g5637-3"
       transform="matrix(6.694494,0,0,6.694494,-1276.6583,-534.797)"><path
         d="m 290.09425,116.59671 -0.9883,-0.90565 -0.0803,-24.031329 c -0.0837,-25.03075 -0.0174,-26.996681 1.04044,-30.859367 0.67878,-2.478615 2.5302,-6.285315 4.02086,-8.267293 5.16202,-6.863406 12.66442,-10.701537 20.9183,-10.701537 h 2.24999 l 0.93935,-1.785937 c 1.26701,-2.408915 4.02868,-6.039946 5.8953,-7.751128 3.75398,-3.441367 8.64905,-5.70761 12.70995,-5.884251 2.26161,-0.09837 3.50301,1.084252 3.50301,3.337152 0,2.128118 -1.15676,3.009038 -4.56657,3.47762 -2.06892,0.284316 -5.32436,2.092386 -7.34199,4.07774 -1.52621,1.501791 -4.46341,5.491829 -4.18998,5.691891 0.0502,0.03672 0.69296,0.31909 1.42839,0.627483 3.54111,1.484929 6.51475,3.563536 9.30083,6.501385 3.0416,3.207282 4.94089,6.552531 6.3333,11.154921 0.65791,2.174626 0.72195,2.77154 0.73811,6.879167 0.0142,3.599516 -0.0831,4.89427 -0.48721,6.482291 -2.39916,9.429058 -9.44425,16.797873 -18.60281,19.457633 -2.32985,0.67661 -4.46294,0.93213 -8.40895,1.00727 -2.05044,0.039 -2.11885,0.061 -2.18659,0.70177 -0.21821,2.06408 -1.03353,5.711109 -1.70859,7.642809 -1.98596,5.68283 -5.49265,9.82277 -10.39232,12.26903 -1.83599,0.91666 -5.46412,1.78399 -7.46259,1.78399 -1.5363,0 -1.75422,-0.0742 -2.66161,-0.90566 z m 7.15818,-6.79704 c 4.7948,-2.40594 7.4676,-7.047 8.51581,-14.786879 0.56854,-4.19814 0.97739,-5.37731 2.10634,-6.07505 0.80341,-0.49653 1.26399,-0.53672 5.73683,-0.50054 4.22885,0.0342 5.13638,-0.0348 6.95668,-0.529134 10.26641,-2.787927 16.59432,-12.945854 14.59012,-23.420886 -0.76776,-4.012702 -2.44939,-7.172026 -5.43872,-10.217843 -3.24501,-3.306339 -7.10596,-5.186243 -11.97648,-5.831382 -5.38672,-0.713515 -11.50788,1.275077 -15.6899,5.097206 -3.08917,2.823334 -5.58025,7.639063 -6.17924,11.945694 -0.3886,2.793905 -0.39845,44.877764 -0.0105,44.877764 0.15131,0 0.77639,-0.25153 1.38906,-0.55895 z"
         style="fill:#ba1733;fill-opacity:1;stroke-width:0.264583"
         id="path359-6"
         sodipodi:nodetypes="ccsssscssssssssssscssssssscsssscsssssss" /><path
         style="fill:#ba1733;fill-opacity:1;stroke:#ba1733;stroke-width:1.631;stroke-dasharray:none;stroke-opacity:1"
         d="m 296.10627,104.9266 c -0.15452,-2.86937 -0.19402,-13.003301 -0.0878,-22.519855 l 0.19314,-17.302815 0.99214,-2.84353 c 2.39016,-6.850423 7.48686,-11.494109 14.40584,-13.125395 10.03605,-2.3662 20.60586,4.119438 23.31755,14.307635 1.73106,6.503874 -0.34703,14.143045 -5.15959,18.966944 -4.35012,4.360355 -7.8156,5.675752 -15.75403,5.979779 -7.11277,0.272407 -7.06176,0.236334 -7.98706,5.647096 -1.51138,8.837921 -3.777,13.062561 -8.25156,15.386461 l -1.38771,0.72073 z m 15.9327,-20.381529 c 1.69895,-0.709869 2.0188,-1.708317 2.70161,-8.433718 0.75205,-7.407122 1.7839,-13.067467 3.40347,-18.67 0.71649,-2.47854 1.42031,-4.80591 1.56403,-5.171932 0.22466,-0.572127 0.0289,-0.665194 -1.39554,-0.663371 -3.89324,0.005 -6.25295,1.708843 -7.31378,5.280998 -1.81266,6.103938 -4.07664,22.75713 -3.46956,25.521174 0.16828,0.766151 0.69271,1.457071 1.46204,1.926169 1.43327,0.873956 1.45645,0.875559 3.04773,0.21068 z"
         id="path5536-7" /></g></g></svg>
